<?xml version="1.0" encoding="UTF-8"?><svg xmlns="http://www.w3.org/2000/svg" viewBox="0 0 1200 900" width="1200" height="900" role="img" aria-labelledby="title desc"><title id="title">Blueprint study of Indiana</title><desc id="desc">A warm white paper study of the state silhouette with recorded major rivers in blueprint blue.</desc><defs><pattern id="minor-grid" width="24" height="24" patternUnits="userSpaceOnUse"><path d="M 24 0 H 0 V 24" fill="none" stroke="#dceaf5" stroke-width="0.75"/></pattern><pattern id="major-grid" width="120" height="120" patternUnits="userSpaceOnUse"><rect width="120" height="120" fill="url(#minor-grid)"/><path d="M 120 0 H 0 V 120" fill="none" stroke="#bfd7ea" stroke-width="1.15"/></pattern></defs><rect width="1200" height="900" fill="#f8f7f3"/><rect width="1200" height="900" fill="url(#major-grid)" opacity="0.72"/><path d="M 352.14 749.86 l 24.83 0.42" stroke="#173246" stroke-width="0.45" opacity="0.04"/><path d="M 92.3 254.9 l 41.78 -1.12" stroke="#173246" stroke-width="0.45" opacity="0.05"/><path d="M 717.87 214.37 l 41.55 1.72" stroke="#173246" stroke-width="0.45" opacity="0.04"/><path d="M 1163.96 784.63 l 11.03 -0.19" stroke="#173246" stroke-width="0.45" opacity="0.05"/><path d="M 26.59 43.22 l 27.2 1.62" stroke="#173246" stroke-width="0.45" opacity="0.03"/><path d="M 1072.25 57.1 l 42.16 -1.25" stroke="#173246" stroke-width="0.45" opacity="0.03"/><path d="M 1058.9 821.88 l 39.1 -0.05" stroke="#173246" stroke-width="0.45" opacity="0.05"/><path d="M 321.07 86.34 l 36.47 1.22" stroke="#173246" stroke-width="0.45" opacity="0.06"/><path d="M 768.97 690.68 l 33.39 -0.24" stroke="#173246" stroke-width="0.45" opacity="0.05"/><path d="M 598.59 157.88 l 29.18 -1.61" stroke="#173246" stroke-width="0.45" opacity="0.03"/><path d="M 32.18 417.35 l 19.35 -0.18" stroke="#173246" stroke-width="0.45" opacity="0.03"/><path d="M 567.39 393.56 l 40.09 0.21" stroke="#173246" stroke-width="0.45" opacity="0.05"/><path d="M 988.11 211.43 l 41.33 1.24" stroke="#173246" stroke-width="0.45" opacity="0.04"/><path d="M 1036.74 801.08 l 39.55 -1.05" stroke="#173246" stroke-width="0.45" opacity="0.04"/><path d="M 766.19 150.5 l 23.61 0.69" stroke="#173246" stroke-width="0.45" opacity="0.06"/><path d="M 568.24 863.55 l 15.16 -0.02" stroke="#173246" stroke-width="0.45" opacity="0.05"/><path d="M 1164.96 80.17 l 16.33 -0.96" stroke="#173246" stroke-width="0.45" opacity="0.05"/><path d="M 679.03 159.95 l 21.73 -0.89" stroke="#173246" stroke-width="0.45" opacity="0.03"/><path d="M 197.13 526.02 l 29.21 -1.71" stroke="#173246" stroke-width="0.45" opacity="0.06"/><path d="M 661.33 126.94 l 35.59 -0.92" stroke="#173246" stroke-width="0.45" opacity="0.03"/><path d="M 1034.46 435.32 l 31.5 1.01" stroke="#173246" stroke-width="0.45" opacity="0.04"/><path d="M 360.66 711.17 l 30.25 0.8" stroke="#173246" stroke-width="0.45" opacity="0.04"/><path d="M 743.44 593.24 l 28.85 1.12" stroke="#173246" stroke-width="0.45" opacity="0.04"/><path d="M 377.58 468.57 l 39.08 1.63" stroke="#173246" stroke-width="0.45" opacity="0.06"/><path d="M 315.5 396.7 l 39.07 -0.25" stroke="#173246" stroke-width="0.45" opacity="0.04"/><path d="M 299.18 288.79 l 20.48 0.58" stroke="#173246" stroke-width="0.45" opacity="0.04"/><path d="M 363.2 869.63 l 15.46 -1.57" stroke="#173246" stroke-width="0.45" opacity="0.04"/><path d="M 518.81 769.89 l 22.2 -1.49" stroke="#173246" stroke-width="0.45" opacity="0.05"/><path d="M 589.67 214.22 l 9.64 0.5" stroke="#173246" stroke-width="0.45" opacity="0.04"/><path d="M 799.1 414.87 l 15.58 -1.16" stroke="#173246" stroke-width="0.45" opacity="0.06"/><path d="M 1060.63 210.86 l 13.42 1.65" stroke="#173246" stroke-width="0.45" opacity="0.05"/><path d="M 280.54 470.7 l 43.71 0.33" stroke="#173246" stroke-width="0.45" opacity="0.06"/><path d="M 844.55 275.9 l 8.12 -0.7" stroke="#173246" stroke-width="0.45" opacity="0.06"/><path d="M 851.11 462.13 l 23.96 1.11" stroke="#173246" stroke-width="0.45" opacity="0.06"/><path d="M 81.72 238.64 l 20.77 1.22" stroke="#173246" stroke-width="0.45" opacity="0.04"/><path d="M 900.97 79.77 l 25.56 -0.86" stroke="#173246" stroke-width="0.45" opacity="0.06"/><path d="M 989.08 25.79 l 34.39 0.15" stroke="#173246" stroke-width="0.45" opacity="0.05"/><path d="M 24.95 733.89 l 33.23 0.59" stroke="#173246" stroke-width="0.45" opacity="0.06"/><path d="M 560.44 820.57 l 40.87 -0.42" stroke="#173246" stroke-width="0.45" opacity="0.03"/><path d="M 287.83 694.96 l 13.92 0.51" stroke="#173246" stroke-width="0.45" opacity="0.04"/><path d="M 547.4 396.63 l 23.75 0.4" stroke="#173246" stroke-width="0.45" opacity="0.05"/><path d="M 401.15 641.47 l 15.96 0.79" stroke="#173246" stroke-width="0.45" opacity="0.03"/><path d="M 1122.05 413.17 l 8.07 1.62" stroke="#173246" stroke-width="0.45" opacity="0.04"/><path d="M 294.55 317.02 l 43.65 -1.18" stroke="#173246" stroke-width="0.45" opacity="0.03"/><path d="M 72.37 55.46 l 41.44 1.3" stroke="#173246" stroke-width="0.45" opacity="0.04"/><path d="M 90.17 387.15 l 26.18 0.06" stroke="#173246" stroke-width="0.45" opacity="0.05"/><path d="M 1116.28 722.67 l 39.87 -0.08" stroke="#173246" stroke-width="0.45" opacity="0.03"/><path d="M 146.48 682.63 l 14.19 0.65" stroke="#173246" stroke-width="0.45" opacity="0.04"/><path d="M 385.88 58.87 l 15.15 1.63" stroke="#173246" stroke-width="0.45" opacity="0.06"/><path d="M 981.6 693.88 l 27.47 -0.23" stroke="#173246" stroke-width="0.45" opacity="0.05"/><path d="M 965.67 651.45 l 30.14 -0.68" stroke="#173246" stroke-width="0.45" opacity="0.03"/><path d="M 303.45 812.82 l 42.65 -0.72" stroke="#173246" stroke-width="0.45" opacity="0.06"/><path d="M 717.64 462.33 l 36.36 -1.58" stroke="#173246" stroke-width="0.45" opacity="0.03"/><path d="M 1126.96 452.85 l 23.09 -1.3" stroke="#173246" stroke-width="0.45" opacity="0.06"/><path d="M 467.97 445.95 l 31.96 1" stroke="#173246" stroke-width="0.45" opacity="0.05"/><path d="M 610.78 830.47 l 29.8 0.08" stroke="#173246" stroke-width="0.45" opacity="0.03"/><path d="M 776.02 699.95 l 15.85 1.14" stroke="#173246" stroke-width="0.45" opacity="0.03"/><path d="M 545.36 337.37 l 9.75 0.13" stroke="#173246" stroke-width="0.45" opacity="0.03"/><path d="M 471.28 485.16 l 10.18 1.77" stroke="#173246" stroke-width="0.45" opacity="0.06"/><path d="M 555.71 502.91 l 22.76 1.46" stroke="#173246" stroke-width="0.45" opacity="0.06"/><path d="M 555.12 156.15 l 27.56 -0.8" stroke="#173246" stroke-width="0.45" opacity="0.06"/><path d="M 857.22 589.26 l 20.09 0.44" stroke="#173246" stroke-width="0.45" opacity="0.04"/><path d="M 294.58 528.3 l 33.04 -1.7" stroke="#173246" stroke-width="0.45" opacity="0.04"/><path d="M 443.97 728.95 l 22.58 -1.15" stroke="#173246" stroke-width="0.45" opacity="0.06"/><path d="M 691.89 696.39 l 28.88 1.71" stroke="#173246" stroke-width="0.45" opacity="0.05"/><path d="M 864.46 443.09 l 41.75 1.19" stroke="#173246" stroke-width="0.45" opacity="0.06"/><path d="M 1077.41 435.77 l 24.02 -0.87" stroke="#173246" stroke-width="0.45" opacity="0.05"/><path d="M 410.57 208.4 l 19.68 0.52" stroke="#173246" stroke-width="0.45" opacity="0.03"/><path d="M 1116.13 669.9 l 29.96 0.66" stroke="#173246" stroke-width="0.45" opacity="0.03"/><path d="M 587.42 644.77 l 40.77 -0.64" stroke="#173246" stroke-width="0.45" opacity="0.05"/><path d="M 493.94 741.08 l 13.33 0.26" stroke="#173246" stroke-width="0.45" opacity="0.04"/><path d="M 348.05 41.3 l 41.34 -1.65" stroke="#173246" stroke-width="0.45" opacity="0.04"/><path d="M 816.99 108.25 L 817.75 188.14 L 814.69 565.8 L 812.14 567.41 L 808.14 571.95 L 808.46 577.48 L 814.08 584.03 L 814.78 586.97 L 813.45 589.94 L 807.56 596.36 L 809.18 598.5 L 811.29 599.54 L 817.04 599.89 L 819.92 600.96 L 819.74 603.49 L 816.13 608.74 L 815.18 612.1 L 816.98 617.8 L 815.23 618.78 L 804.4 617.6 L 799.84 618.24 L 791.44 621.81 L 772.15 634.01 L 766.78 635.21 L 764.2 633.57 L 759.67 628.24 L 757.36 627.1 L 748.96 626.69 L 733.73 628.17 L 731.27 629.59 L 731.21 632.84 L 733.24 638.84 L 734.37 649.42 L 737.15 656.13 L 736.54 659.34 L 734.68 661.88 L 727.64 667.21 L 723.8 672.35 L 721.77 673.92 L 713.39 675.24 L 709.46 680.23 L 706.33 695.43 L 703.46 701.28 L 696.14 706.54 L 691.14 708.12 L 689.61 708.07 L 688.26 705.91 L 684.87 704.81 L 683.53 704.81 L 681.74 706.84 L 678.88 713.93 L 675.34 716.72 L 672.33 723.56 L 670.49 743.56 L 668.32 749.52 L 664.49 753.15 L 654.97 755.54 L 652.41 759.72 L 644.56 751.87 L 634.91 750.56 L 624.92 744.36 L 622.82 742.48 L 621.6 739.99 L 621.84 730.09 L 620.64 728.09 L 613.8 722.52 L 611.4 721.33 L 608.6 721.03 L 607.14 722.2 L 608.75 725.4 L 614.14 727.95 L 615.22 729.2 L 612.89 731.91 L 607.32 734.37 L 604.2 734.69 L 602.59 734.15 L 601.21 731.85 L 598.17 730.89 L 597.47 732.5 L 597.98 734.33 L 601.08 738.95 L 600.55 742.64 L 598.29 744.78 L 592.43 746 L 590.66 747.54 L 590.01 751.2 L 590.04 765.12 L 588.38 766.77 L 581.26 768.36 L 579.42 777.8 L 576.67 779.65 L 573.49 779.59 L 571.58 777.92 L 574.1 771.46 L 571.57 770.74 L 565.72 771.94 L 561.1 771.03 L 557.05 767.61 L 554.18 762.97 L 553.09 758.43 L 550.98 755.33 L 546.22 757.26 L 536.34 765.22 L 528.65 766.06 L 524.45 768.41 L 521.34 773.11 L 517.72 783.93 L 515.57 787.96 L 511.42 790.83 L 506.82 786.13 L 505.24 780.8 L 499.37 779.45 L 493.29 775.46 L 484.34 771.79 L 479.57 767.97 L 473.48 764.46 L 470.65 763.72 L 465.09 765.2 L 459.63 768.29 L 454.49 769.4 L 449.89 764.89 L 449.62 760.31 L 447.92 758.55 L 445.72 759.86 L 445.3 762.01 L 445.83 765.85 L 448.25 770.84 L 448.91 774.39 L 447.55 779.1 L 444.15 782.96 L 440.19 784.56 L 437.18 782.5 L 436.87 779.89 L 438.24 774.29 L 438 771.94 L 436.27 770.52 L 434.05 770.73 L 430.78 773.11 L 421.67 775.46 L 416.28 773.49 L 409.71 766.78 L 406.88 766.27 L 404.58 767.69 L 403.63 771.29 L 408.14 783.78 L 401.37 792 L 398.92 791.34 L 391.89 787.3 L 388.88 787.73 L 382.32 785.76 L 381.85 784.15 L 382.34 783.78 L 388.19 783.91 L 389.6 783.14 L 388.76 781.23 L 380.08 771.94 L 387.3 773.11 L 389.4 771.97 L 389.82 770.73 L 388.34 761.1 L 390.24 759.02 L 389.11 751.87 L 390.72 749.84 L 388.86 745.61 L 395.06 743.34 L 399.12 740.13 L 397.19 738.31 L 393.02 738.76 L 390.91 737.67 L 398.11 731.56 L 402.23 730.09 L 403.59 727.01 L 401.96 725.05 L 399.44 723.57 L 395.84 718.4 L 395.94 714.48 L 399.12 710.78 L 402.06 703.12 L 404.61 702.45 L 406.01 705.53 L 407.45 706.44 L 409.33 701.81 L 411.34 699.99 L 412.76 704.06 L 414 704.81 L 414.88 703.97 L 415.85 698.29 L 418.97 690.6 L 423.56 688.26 L 427.6 682.01 L 428.27 678.55 L 426.27 676.52 L 426.27 675.24 L 434.47 671.71 L 438 668.19 L 440.7 669.02 L 441.61 667.13 L 441.59 665.11 L 439.36 661.49 L 438.9 658.8 L 439.55 656.22 L 440.9 654.26 L 444.32 651.75 L 443.5 651.75 L 445.3 649.3 L 444.65 645.86 L 445.75 642.44 L 447.76 639.54 L 449.89 637.67 L 454.63 637.1 L 459.47 623.24 L 457.75 616.49 L 454.89 609.86 L 453.42 603.51 L 456.13 596.9 L 456.13 589.85 L 455.33 587.67 L 449.89 582.27 L 447.96 572.97 L 446.61 569.89 L 439.65 563.64 L 438.9 562.21 L 439.37 555.62 L 447.9 547.19 L 448.01 539.8 L 445 534 L 444.38 531.01 L 445.75 527.52 L 448.13 524.96 L 456.63 520.36 L 458.17 108 L 816.99 108.25 Z" fill="#fffefd" fill-opacity="0.93" fill-rule="evenodd"/><path d="M 629.13 163.9 L 629.74 166.92 L 631.21 169.14 L 635.53 173.41 L 630.8 175.49 L 617.74 177.96 L 614.61 181.72 L 614.98 183.97 L 618.3 187.49 L 618.01 189.61 L 611.61 192.8 L 567.97 185.08 L 564.42 185.18 L 559.27 189.19 L 556.45 190.72 L 544.15 193.18 L 540.93 194.38 L 538.38 198.71 L 535.61 200.54 L 532.28 201.56 L 529.45 201.58 L 527.12 200.34 L 520.02 192.82 L 517.57 190.9 L 514.36 189.89 L 507.79 189.84 L 501.85 192.15 L 498.99 194.48 L 497.78 197.48 L 480.26 207.94 L 478.26 208.63 L 457.81 209.29" fill="none" stroke="#79b8e3" stroke-width="6.88" stroke-linecap="round" stroke-linejoin="round" opacity="0.26"/><path d="M 816.75 311.39 L 806.28 309.89 L 800.25 307.66 L 797.61 304.15 L 796.72 300.63 L 793.94 300.26 L 786.12 297.64 L 784.01 293.58 L 779.65 288.83 L 764.07 275.86 L 760.89 272.55 L 758.83 271.54 L 752.11 270.62 L 746.17 268.2 L 735.98 267.01 L 732.81 265.78 L 728.66 262.85 L 725.15 263.14 L 723.79 262.37 L 719.24 257.61 L 715.22 256.77 L 699.76 265.31 L 682.22 272.02 L 676.27 272.75 L 670.4 275.27 L 666.15 276.23 L 663.72 277.84 L 662.14 278.21 L 654.47 278.21 L 642.88 281.51 L 636.73 282.06 L 624.35 278.84 L 621.44 279.14 L 618.75 281.26 L 616.08 282.49 L 612.28 282.21 L 605.58 280.67 L 602.39 280.64 L 593.36 281.85 L 590.8 282.81 L 573.56 297.34 L 569.73 301.96 L 565.05 311.39 L 559.7 315.46 L 556.35 317.17 L 548.57 325.28 L 543.07 327.73 L 540.2 332.75 L 537.91 340.02 L 533.15 340.76 L 520.92 338.3 L 518.26 339.08 L 515.92 340.98 L 512.3 345.34 L 507.91 348.96 L 491.46 357.2 L 485.2 364.05 L 483.19 369.1 L 480.81 371.2 L 469.9 376.64 L 467.73 379.3 L 468.37 382.54 L 470.52 386.02 L 471.46 389.38 L 471.43 392.99 L 469.41 403.93 L 469.01 410.64 L 469.66 416.83 L 471.61 421.98 L 475.87 426.36 L 477.44 428.75 L 477.77 432.66 L 475.52 437.57 L 475.23 439.7 L 477.84 445.24 L 475.41 453.27 L 474.85 461.02 L 475.23 474.43 L 473.84 482.33 L 472.03 485.25 L 470.1 490.31 L 469.58 494.37 L 467.93 497.44 L 466.1 508.17 L 464.77 510.99 L 456.63 520.35 M 456.12 521.12 L 448.12 524.98 L 445.74 527.53 M 444.37 550.68 L 439.37 555.63 M 454.62 637.1 L 449.88 637.68 M 448.59 638.81 L 447.75 639.55 M 444 651.39 L 443.5 651.75 M 444.29 651.77 L 442.6 652.83 M 442 653.33 L 440.89 654.28 M 440 655.55 L 439.55 656.22 M 440.69 669.02 L 439.19 668.14 L 437.99 668.21 L 437 669.01 M 435.59 670.73 L 430.37 673.89 M 430.3 673.93 L 426.27 675.25 M 425.68 685.48 L 423.54 688.28 L 418.96 690.61 M 414 704.8 L 412.74 704.07 L 411.32 700.01 L 410.6 700.42 M 407.44 706.43 L 406 705.55 L 404.6 702.47 L 402.05 703.13 M 397.47 712.73 L 396.7 713.47 M 402.21 730.11 L 398.11 731.57 M 397.57 731.95 L 395.5 733.82 M 393.95 735.39 L 390.92 737.68 M 399.1 740.14 L 395.04 743.36 L 388.87 745.62 M 390.23 759.04 L 390.14 759.21 M 389.43 760.32 L 388.34 761.12 M 389.39 771.98 L 387.28 773.12 L 380.09 771.95 M 389.58 783.15 L 388.18 783.93 L 381.85 784.15" fill="none" stroke="#79b8e3" stroke-width="7.56" stroke-linecap="round" stroke-linejoin="round" opacity="0.26"/><path d="M 812.14 567.42 L 810.32 569.48 M 808.14 571.95 L 808.45 577.48 L 814.07 584.04 L 814.77 586.99 L 813.43 589.96 L 807.55 596.37 L 809.16 598.51 L 811.29 599.55 L 817.02 599.9 L 819.91 600.97 L 819.73 603.51 L 817.97 606.45 M 816.13 608.75 L 815.16 612.11 L 816.97 617.81 M 793.77 620.82 L 791.42 621.81 L 778.68 629.88 M 731.27 629.6 L 731.2 632.86 L 733.23 638.85 L 734.36 649.43 L 737.14 656.15 L 736.53 659.36 L 735.65 660.56 M 729.38 665.9 L 725.83 669.35 M 725.83 669.36 L 723.79 672.36 M 716.1 674.49 L 715.43 674.68 M 713.38 675.25 L 709.44 680.25 L 706.33 695.44 M 706.32 695.45 L 703.45 701.28 M 683.51 704.82 L 682.94 705.47 M 681.74 706.84 L 678.28 714.64 M 675.34 716.72 L 673.55 719.77 L 672.32 723.57 L 670.47 743.58 L 669.14 748.03 M 669.13 748.04 L 667.72 750.33 M 658.04 754.34 L 657.97 754.37 M 654.97 755.54 L 652.77 759.36 M 607.14 722.2 L 608.73 725.42 L 611.39 727.07 L 614.12 727.96 L 615.19 729.24 M 598.16 730.91 L 597.46 732.51 L 597.96 734.35 L 600.32 737.07 L 601.07 738.97 L 600.54 742.65 L 599.73 743.42 M 590.65 747.56 L 590 751.22 L 590.42 762.52 L 590.03 765.13 M 588.87 766.28 L 588.37 766.77 M 581.26 768.39 L 580.46 770.95 L 580.48 774.34 L 579.42 777.81 M 526.29 767.13 L 526.12 767.24 M 523.48 769.59 L 521.33 773.12 L 517.71 783.94 M 516.94 785.4 L 515.56 787.96 M 512.45 790.12 L 511.42 790.83 M 460.09 768.03 L 459.63 768.29 M 446.73 758.78 L 445.71 759.87 L 445.28 762.01 L 445.82 765.87 L 448.24 770.86 L 448.89 774.41 L 447.54 779.11 M 447.06 779.65 L 443.91 783.06 M 432 771.86 L 431.34 772.54 M 404.57 767.7 L 403.61 771.31 L 408.12 783.79 L 401.36 792" fill="none" stroke="#79b8e3" stroke-width="8.58" stroke-linecap="round" stroke-linejoin="round" opacity="0.26"/><path d="M 629.13 163.9 L 629.74 166.92 L 631.21 169.14 L 635.53 173.41 L 630.8 175.49 L 617.74 177.96 L 614.61 181.72 L 614.98 183.97 L 618.3 187.49 L 618.01 189.61 L 611.61 192.8 L 567.97 185.08 L 564.42 185.18 L 559.27 189.19 L 556.45 190.72 L 544.15 193.18 L 540.93 194.38 L 538.38 198.71 L 535.61 200.54 L 532.28 201.56 L 529.45 201.58 L 527.12 200.34 L 520.02 192.82 L 517.57 190.9 L 514.36 189.89 L 507.79 189.84 L 501.85 192.15 L 498.99 194.48 L 497.78 197.48 L 480.26 207.94 L 478.26 208.63 L 457.81 209.29" fill="none" stroke="#0068b5" stroke-width="1.88" stroke-linecap="round" stroke-linejoin="round" opacity="0.88"/><path d="M 816.75 311.39 L 806.28 309.89 L 800.25 307.66 L 797.61 304.15 L 796.72 300.63 L 793.94 300.26 L 786.12 297.64 L 784.01 293.58 L 779.65 288.83 L 764.07 275.86 L 760.89 272.55 L 758.83 271.54 L 752.11 270.62 L 746.17 268.2 L 735.98 267.01 L 732.81 265.78 L 728.66 262.85 L 725.15 263.14 L 723.79 262.37 L 719.24 257.61 L 715.22 256.77 L 699.76 265.31 L 682.22 272.02 L 676.27 272.75 L 670.4 275.27 L 666.15 276.23 L 663.72 277.84 L 662.14 278.21 L 654.47 278.21 L 642.88 281.51 L 636.73 282.06 L 624.35 278.84 L 621.44 279.14 L 618.75 281.26 L 616.08 282.49 L 612.28 282.21 L 605.58 280.67 L 602.39 280.64 L 593.36 281.85 L 590.8 282.81 L 573.56 297.34 L 569.73 301.96 L 565.05 311.39 L 559.7 315.46 L 556.35 317.17 L 548.57 325.28 L 543.07 327.73 L 540.2 332.75 L 537.91 340.02 L 533.15 340.76 L 520.92 338.3 L 518.26 339.08 L 515.92 340.98 L 512.3 345.34 L 507.91 348.96 L 491.46 357.2 L 485.2 364.05 L 483.19 369.1 L 480.81 371.2 L 469.9 376.64 L 467.73 379.3 L 468.37 382.54 L 470.52 386.02 L 471.46 389.38 L 471.43 392.99 L 469.41 403.93 L 469.01 410.64 L 469.66 416.83 L 471.61 421.98 L 475.87 426.36 L 477.44 428.75 L 477.77 432.66 L 475.52 437.57 L 475.23 439.7 L 477.84 445.24 L 475.41 453.27 L 474.85 461.02 L 475.23 474.43 L 473.84 482.33 L 472.03 485.25 L 470.1 490.31 L 469.58 494.37 L 467.93 497.44 L 466.1 508.17 L 464.77 510.99 L 456.63 520.35 M 456.12 521.12 L 448.12 524.98 L 445.74 527.53 M 444.37 550.68 L 439.37 555.63 M 454.62 637.1 L 449.88 637.68 M 448.59 638.81 L 447.75 639.55 M 444 651.39 L 443.5 651.75 M 444.29 651.77 L 442.6 652.83 M 442 653.33 L 440.89 654.28 M 440 655.55 L 439.55 656.22 M 440.69 669.02 L 439.19 668.14 L 437.99 668.21 L 437 669.01 M 435.59 670.73 L 430.37 673.89 M 430.3 673.93 L 426.27 675.25 M 425.68 685.48 L 423.54 688.28 L 418.96 690.61 M 414 704.8 L 412.74 704.07 L 411.32 700.01 L 410.6 700.42 M 407.44 706.43 L 406 705.55 L 404.6 702.47 L 402.05 703.13 M 397.47 712.73 L 396.7 713.47 M 402.21 730.11 L 398.11 731.57 M 397.57 731.95 L 395.5 733.82 M 393.95 735.39 L 390.92 737.68 M 399.1 740.14 L 395.04 743.36 L 388.87 745.62 M 390.23 759.04 L 390.14 759.21 M 389.43 760.32 L 388.34 761.12 M 389.39 771.98 L 387.28 773.12 L 380.09 771.95 M 389.58 783.15 L 388.18 783.93 L 381.85 784.15" fill="none" stroke="#0068b5" stroke-width="2.56" stroke-linecap="round" stroke-linejoin="round" opacity="0.88"/><path d="M 812.14 567.42 L 810.32 569.48 M 808.14 571.95 L 808.45 577.48 L 814.07 584.04 L 814.77 586.99 L 813.43 589.96 L 807.55 596.37 L 809.16 598.51 L 811.29 599.55 L 817.02 599.9 L 819.91 600.97 L 819.73 603.51 L 817.97 606.45 M 816.13 608.75 L 815.16 612.11 L 816.97 617.81 M 793.77 620.82 L 791.42 621.81 L 778.68 629.88 M 731.27 629.6 L 731.2 632.86 L 733.23 638.85 L 734.36 649.43 L 737.14 656.15 L 736.53 659.36 L 735.65 660.56 M 729.38 665.9 L 725.83 669.35 M 725.83 669.36 L 723.79 672.36 M 716.1 674.49 L 715.43 674.68 M 713.38 675.25 L 709.44 680.25 L 706.33 695.44 M 706.32 695.45 L 703.45 701.28 M 683.51 704.82 L 682.94 705.47 M 681.74 706.84 L 678.28 714.64 M 675.34 716.72 L 673.55 719.77 L 672.32 723.57 L 670.47 743.58 L 669.14 748.03 M 669.13 748.04 L 667.72 750.33 M 658.04 754.34 L 657.97 754.37 M 654.97 755.54 L 652.77 759.36 M 607.14 722.2 L 608.73 725.42 L 611.39 727.07 L 614.12 727.96 L 615.19 729.24 M 598.16 730.91 L 597.46 732.51 L 597.96 734.35 L 600.32 737.07 L 601.07 738.97 L 600.54 742.65 L 599.73 743.42 M 590.65 747.56 L 590 751.22 L 590.42 762.52 L 590.03 765.13 M 588.87 766.28 L 588.37 766.77 M 581.26 768.39 L 580.46 770.95 L 580.48 774.34 L 579.42 777.81 M 526.29 767.13 L 526.12 767.24 M 523.48 769.59 L 521.33 773.12 L 517.71 783.94 M 516.94 785.4 L 515.56 787.96 M 512.45 790.12 L 511.42 790.83 M 460.09 768.03 L 459.63 768.29 M 446.73 758.78 L 445.71 759.87 L 445.28 762.01 L 445.82 765.87 L 448.24 770.86 L 448.89 774.41 L 447.54 779.11 M 447.06 779.65 L 443.91 783.06 M 432 771.86 L 431.34 772.54 M 404.57 767.7 L 403.61 771.31 L 408.12 783.79 L 401.36 792" fill="none" stroke="#0068b5" stroke-width="3.58" stroke-linecap="round" stroke-linejoin="round" opacity="0.88"/><path d="M 816.99 108.25 L 817.75 188.14 L 814.69 565.8 L 812.14 567.41 L 808.14 571.95 L 808.46 577.48 L 814.08 584.03 L 814.78 586.97 L 813.45 589.94 L 807.56 596.36 L 809.18 598.5 L 811.29 599.54 L 817.04 599.89 L 819.92 600.96 L 819.74 603.49 L 816.13 608.74 L 815.18 612.1 L 816.98 617.8 L 815.23 618.78 L 804.4 617.6 L 799.84 618.24 L 791.44 621.81 L 772.15 634.01 L 766.78 635.21 L 764.2 633.57 L 759.67 628.24 L 757.36 627.1 L 748.96 626.69 L 733.73 628.17 L 731.27 629.59 L 731.21 632.84 L 733.24 638.84 L 734.37 649.42 L 737.15 656.13 L 736.54 659.34 L 734.68 661.88 L 727.64 667.21 L 723.8 672.35 L 721.77 673.92 L 713.39 675.24 L 709.46 680.23 L 706.33 695.43 L 703.46 701.28 L 696.14 706.54 L 691.14 708.12 L 689.61 708.07 L 688.26 705.91 L 684.87 704.81 L 683.53 704.81 L 681.74 706.84 L 678.88 713.93 L 675.34 716.72 L 672.33 723.56 L 670.49 743.56 L 668.32 749.52 L 664.49 753.15 L 654.97 755.54 L 652.41 759.72 L 644.56 751.87 L 634.91 750.56 L 624.92 744.36 L 622.82 742.48 L 621.6 739.99 L 621.84 730.09 L 620.64 728.09 L 613.8 722.52 L 611.4 721.33 L 608.6 721.03 L 607.14 722.2 L 608.75 725.4 L 614.14 727.95 L 615.22 729.2 L 612.89 731.91 L 607.32 734.37 L 604.2 734.69 L 602.59 734.15 L 601.21 731.85 L 598.17 730.89 L 597.47 732.5 L 597.98 734.33 L 601.08 738.95 L 600.55 742.64 L 598.29 744.78 L 592.43 746 L 590.66 747.54 L 590.01 751.2 L 590.04 765.12 L 588.38 766.77 L 581.26 768.36 L 579.42 777.8 L 576.67 779.65 L 573.49 779.59 L 571.58 777.92 L 574.1 771.46 L 571.57 770.74 L 565.72 771.94 L 561.1 771.03 L 557.05 767.61 L 554.18 762.97 L 553.09 758.43 L 550.98 755.33 L 546.22 757.26 L 536.34 765.22 L 528.65 766.06 L 524.45 768.41 L 521.34 773.11 L 517.72 783.93 L 515.57 787.96 L 511.42 790.83 L 506.82 786.13 L 505.24 780.8 L 499.37 779.45 L 493.29 775.46 L 484.34 771.79 L 479.57 767.97 L 473.48 764.46 L 470.65 763.72 L 465.09 765.2 L 459.63 768.29 L 454.49 769.4 L 449.89 764.89 L 449.62 760.31 L 447.92 758.55 L 445.72 759.86 L 445.3 762.01 L 445.83 765.85 L 448.25 770.84 L 448.91 774.39 L 447.55 779.1 L 444.15 782.96 L 440.19 784.56 L 437.18 782.5 L 436.87 779.89 L 438.24 774.29 L 438 771.94 L 436.27 770.52 L 434.05 770.73 L 430.78 773.11 L 421.67 775.46 L 416.28 773.49 L 409.71 766.78 L 406.88 766.27 L 404.58 767.69 L 403.63 771.29 L 408.14 783.78 L 401.37 792 L 398.92 791.34 L 391.89 787.3 L 388.88 787.73 L 382.32 785.76 L 381.85 784.15 L 382.34 783.78 L 388.19 783.91 L 389.6 783.14 L 388.76 781.23 L 380.08 771.94 L 387.3 773.11 L 389.4 771.97 L 389.82 770.73 L 388.34 761.1 L 390.24 759.02 L 389.11 751.87 L 390.72 749.84 L 388.86 745.61 L 395.06 743.34 L 399.12 740.13 L 397.19 738.31 L 393.02 738.76 L 390.91 737.67 L 398.11 731.56 L 402.23 730.09 L 403.59 727.01 L 401.96 725.05 L 399.44 723.57 L 395.84 718.4 L 395.94 714.48 L 399.12 710.78 L 402.06 703.12 L 404.61 702.45 L 406.01 705.53 L 407.45 706.44 L 409.33 701.81 L 411.34 699.99 L 412.76 704.06 L 414 704.81 L 414.88 703.97 L 415.85 698.29 L 418.97 690.6 L 423.56 688.26 L 427.6 682.01 L 428.27 678.55 L 426.27 676.52 L 426.27 675.24 L 434.47 671.71 L 438 668.19 L 440.7 669.02 L 441.61 667.13 L 441.59 665.11 L 439.36 661.49 L 438.9 658.8 L 439.55 656.22 L 440.9 654.26 L 444.32 651.75 L 443.5 651.75 L 445.3 649.3 L 444.65 645.86 L 445.75 642.44 L 447.76 639.54 L 449.89 637.67 L 454.63 637.1 L 459.47 623.24 L 457.75 616.49 L 454.89 609.86 L 453.42 603.51 L 456.13 596.9 L 456.13 589.85 L 455.33 587.67 L 449.89 582.27 L 447.96 572.97 L 446.61 569.89 L 439.65 563.64 L 438.9 562.21 L 439.37 555.62 L 447.9 547.19 L 448.01 539.8 L 445 534 L 444.38 531.01 L 445.75 527.52 L 448.13 524.96 L 456.63 520.36 L 458.17 108 L 816.99 108.25 Z" fill="none" fill-rule="evenodd" stroke="#173246" stroke-width="2.15" stroke-linejoin="round" opacity="0.92"/><circle cx="636.83" cy="354.25" r="8" fill="#fffefd" stroke="#0068b5" stroke-width="1.4" opacity="0.8"/><path d="M 618.83 354.25 H 654.83 M 636.83 336.25 V 636.83 372.25" stroke="#0068b5" stroke-width="0.8" opacity="0.52"/><path d="M 35 48 H 61 M 48 35 V 61" stroke="#173246" stroke-width="0.8" opacity="0.32"/><circle cx="48" cy="48" r="4" fill="none" stroke="#173246" stroke-width="0.7" opacity="0.26"/><path d="M 1139 48 H 1165 M 1152 35 V 61" stroke="#173246" stroke-width="0.8" opacity="0.32"/><circle cx="1152" cy="48" r="4" fill="none" stroke="#173246" stroke-width="0.7" opacity="0.26"/><path d="M 35 852 H 61 M 48 839 V 865" stroke="#173246" stroke-width="0.8" opacity="0.32"/><circle cx="48" cy="852" r="4" fill="none" stroke="#173246" stroke-width="0.7" opacity="0.26"/><path d="M 1139 852 H 1165 M 1152 839 V 865" stroke="#173246" stroke-width="0.8" opacity="0.32"/><circle cx="1152" cy="852" r="4" fill="none" stroke="#173246" stroke-width="0.7" opacity="0.26"/></svg>